# xmcd
#
# Track frame offsets:
#	150
#	17872
#	36536
#	46450
#	56844
#	66118
#	84031
#	102679
#	119606
#	138310
#
# Disc length: 2028 seconds
#
# Revision: 1
# Processed by: cddbd v1.5.2PL0 Copyright (c) Steve Scherf et al.
# Submitted via: audiograbber 1.83.01
#
DISCID=9107ea0a
DTITLE=Frank Durbin - Frank Durbin
DYEAR=1900
DGENRE=
TTITLE0=She´s Not The Same Girl She Was When She Was Mine
TTITLE1=Message To Bin Ladin
TTITLE2=Hurricane Wilma
TTITLE3=Half My Age
TTITLE4=Handyman
TTITLE5=Leave My Ring On My Finger
TTITLE6=Crumbled Hat
TTITLE7=The Waltz Of The Angels
TTITLE8=Barbara Doss
TTITLE9=Hey Bartender
EXTD=
EXTT0=
EXTT1=
EXTT2=
EXTT3=
EXTT4=
EXTT5=
EXTT6=
EXTT7=
EXTT8=
EXTT9=
PLAYORDER=
